PathFileType	4	(X/Y/Z)	C:/Users/opensim2020/Desktop/walking_exp_matlab/subject06_walking19_straight_04.trc																																																																																																																																																	
DataRate	CameraRate	NumFrames	NumMarkers	Units	OrigDataRate	OrigDataStartFrame	OrigNumFrames																																																																																																																																													
100	100	4	49	mm	100	4799	340																																																																																																																																													
Frame#	Time	LFHD			RFHD			LBHD			RBHD			C7			T10			CLAV			STRN			RBAK			LSHO			LUPA			LELB			LFRM			LWRA			LWRB			LFIN			RSHO			RUPA			RELB			RFRM			RWRA			RWRB			RFIN			LASI			RASI			LPSI			RPSI			LTHI			LKNE			LTIB			LANK			LHEE			LTOE			RTHI			RKNE			RTIB			RANK			RHEE			RTOE			*39			*40			*41			*42			*43			*44			*45			*46			*47			*48		
		X1	Y1	Z1	X2	Y2	Z2	X3	Y3	Z3	X4	Y4	Z4	X5	Y5	Z5	X6	Y6	Z6	X7	Y7	Z7	X8	Y8	Z8	X9	Y9	Z9	X10	Y10	Z10	X11	Y11	Z11	X12	Y12	Z12	X13	Y13	Z13	X14	Y14	Z14	X15	Y15	Z15	X16	Y16	Z16	X17	Y17	Z17	X18	Y18	Z18	X19	Y19	Z19	X20	Y20	Z20	X21	Y21	Z21	X22	Y22	Z22	X23	Y23	Z23	X24	Y24	Z24	X25	Y25	Z25	X26	Y26	Z26	X27	Y27	Z27	X28	Y28	Z28	X29	Y29	Z29	X30	Y30	Z30	X31	Y31	Z31	X32	Y32	Z32	X33	Y33	Z33	X34	Y34	Z34	X35	Y35	Z35	X36	Y36	Z36	X37	Y37	Z37	X38	Y38	Z38	X39	Y39	Z39	X40	Y40	Z40	X41	Y41	Z41	X42	Y42	Z42	X43	Y43	Z43	X44	Y44	Z44	X45	Y45	Z45	X46	Y46	Z46	X47	Y47	Z47	X48	Y48	Z48	X49	Y49	Z49
																																																																																																																																																				
256	2.55	354.09253	1667.10217	919.98621	355.78885	1656.33484	1051.28015	221.1218	1612.33337	921.18304	225.14256	1606.73853	1050.26135	220.8828	1454.99255	977.53027	189.97008	1125.38086	987.67395	329.65115	1377.40161	979.51959	369.34738	1201.51257	975.71631	148.35939	1284.5929	1058.68396	278.33292	1408.37048	817.39539	290.8197	1208.06018	738.49286	300.02231	1097.01746	722.00293	348.54169	954.64056	699.12793	418.28268	848.38837	745.73706	365.55731	836.12683	700.64954	419.97891	763.71075	701.79932	285.98764	1409.7832	1140.25293	249.92468	1212.47913	1231.02673	261.16299	1090.69495	1243.09521	293.5148	975.05328	1257.01636	373.69089	849.45453	1217.77869	322.77472	840.73364	1260.77979	372.02704	771.742	1258.02258	368.53452	963.89758	883.10345	363.7897	972.02124	1104.83838	210.7274	994.01947	908.53497	212.63666	995.44324	1077.21362	310.78427	648.06421	835.61133	317.84869	485.95392	863.16168	266.71716	233.54469	876.651	242.11044	64.66825	923.88824	198.15961	52.77398	965.94489	386.82153	35.86776	938.19781	354.41205	637.48132	1157.63708	382.41544	514.72302	1134.59387	250.71461	288.57394	1139.73682	163.87599	121.52351	1104.54773	121.97833	102.68085	1057.3418	298.11127	52.2773	1122.15979	254.66524	1705.18274	980.24335	NaN	NaN	NaN	NaN	NaN	NaN	NaN	NaN	NaN	NaN	NaN	NaN	NaN	NaN	NaN	NaN	NaN	NaN	NaN	NaN	NaN	NaN	NaN	NaN	NaN	NaN	NaN
257	2.56	359.6275	1667.22437	919.97223	361.04123	1656.23462	1051.25916	226.47417	1612.61194	921.08014	229.90472	1606.98621	1050.52063	225.59721	1455.28857	977.32471	194.73941	1125.5835	986.91461	334.71231	1377.4989	979.17523	374.26712	1201.57556	975.09381	153.1898	1284.69324	1057.96021	283.70081	1408.7926	817.05328	297.58554	1208.50769	738.00702	307.74606	1097.63843	721.08978	357.90567	955.67322	698.92926	428.82489	850.43756	746.02496	376.32584	837.41876	700.77533	431.76382	765.72998	702.23364	290.70905	1409.71729	1139.87207	254.37256	1212.1405	1230.23145	265.78134	1090.50391	1242.22925	298.31683	974.91705	1256.1189	378.6958	849.45642	1217.02063	327.75348	840.69238	1259.86548	377.18835	771.80725	1257.22144	372.87543	963.67719	882.42847	368.31842	972.18732	1104.00623	215.16678	994.0802	908.18854	217.3367	995.71338	1076.80273	313.87189	647.84998	835.84564	319.80762	485.62186	862.95941	267.42868	233.50247	876.51819	242.19031	64.72502	923.91901	198.13843	52.68354	966.23724	386.88577	35.88697	938.12329	361.29678	638.47491	1157.57007	390.75879	516.12848	1134.06348	264.83951	286.6286	1138.90796	183.42303	116.90951	1103.54578	141.87912	97.1916	1055.98767	319.39789	51.57046	1122.86096	260.14642	1705.29651	980.27087	NaN	NaN	NaN	NaN	NaN	NaN	NaN	NaN	NaN	NaN	NaN	NaN	NaN	NaN	NaN	NaN	NaN	NaN	NaN	NaN	NaN	NaN	NaN	NaN	NaN	NaN	NaN
258	2.57	365.00372	1667.30298	920.11694	366.35071	1656.16199	1051.35449	231.83167	1612.86572	921.05237	235.03874	1607.01477	1050.44702	230.93924	1455.35388	976.81683	199.29265	1125.85217	986.31787	339.79846	1377.55969	978.82391	379.10501	1201.58557	974.53949	157.96695	1284.82666	1057.21814	289.1749	1409.03528	816.68451	304.32526	1208.91382	737.63434	314.97552	1097.90906	720.90704	367.11462	956.6377	698.85699	439.18561	852.44592	746.46411	387.10498	838.68738	700.95819	443.56635	767.78906	702.82489	295.50085	1409.59851	1139.49768	259.02295	1211.9624	1229.31897	270.38031	1090.29016	1241.39282	302.93317	974.74182	1255.30969	383.71005	849.41956	1216.3551	332.62296	840.53815	1258.96716	382.21713	771.80072	1256.55664	377.1272	963.43506	881.7254	373.30127	972.54828	1103.57556	219.52237	994.11157	907.81671	221.96515	996.00977	1076.37354	316.4957	647.56195	835.32581	321.94669	485.29999	862.80292	268.32526	233.47462	876.40125	242.28566	64.78821	923.94507	198.24451	53.07973	966.01074	386.78494	35.74214	938.26038	368.07315	639.42407	1157.5957	399.08621	517.61639	1133.49817	279.01788	284.73605	1138.15063	203.15135	112.64152	1102.66968	162.96947	91.29392	1054.77136	340.63797	50.8517	1123.10999	265.63278	1705.42847	980.33606	NaN	NaN	NaN	NaN	NaN	NaN	NaN	NaN	NaN	NaN	NaN	NaN	NaN	NaN	NaN	NaN	NaN	NaN	NaN	NaN	NaN	NaN	NaN	NaN	NaN	NaN	NaN
259	2.58	370.40759	1667.36108	920.25989	371.68054	1655.99939	1051.48853	237.21379	1613.02673	920.89172	240.36996	1606.98999	1050.35034	236.21884	1455.45081	976.30054	203.9808	1126.05176	985.64661	344.78677	1377.5675	978.51276	383.88837	1201.51233	974.03522	162.85757	1284.88123	1056.42688	294.57895	1409.27673	816.38629	311.00204	1209.24658	737.2937	322.71161	1098.36133	720.69257	376.3999	957.62292	698.91028	449.40781	854.40881	747.0943	397.67065	839.854	701.5943	455.08243	769.91644	703.48242	300.32339	1409.43628	1139.15588	263.76053	1211.72119	1228.7915	274.94168	1090.06152	1240.60254	307.60867	974.50232	1254.52539	388.66592	849.32819	1215.79761	337.33423	840.36255	1258.18359	387.00119	771.62256	1255.89246	381.28943	963.14307	881.02301	377.79953	972.5899	1102.65259	223.84583	994.09601	907.45038	226.62474	996.23956	1075.97717	319.34146	647.28223	835.1474	324.1459	484.98361	862.63538	269.33432	233.43469	876.28149	242.4091	64.84444	923.9881	198.32707	53.2337	966.05859	386.60742	35.63632	938.4245	374.72104	640.27484	1157.65808	407.04422	518.7196	1133.2229	293.25046	282.94327	1137.59497	222.98285	108.62241	1101.99475	183.01546	86.61924	1054.17456	361.99338	49.88812	1122.83203	271.00763	1705.48242	980.40424	NaN	NaN	NaN	NaN	NaN	NaN	NaN	NaN	NaN	NaN	NaN	NaN	NaN	NaN	NaN	NaN	NaN	NaN	NaN	NaN	NaN	NaN	NaN	NaN	NaN	NaN	NaN
